# xmcd CD database file
#
# Track frame offsets:
#	180
#	12739
#	30710
#	43124
#	58749
#	70045
#	84716
#	100876
#	117672
#	130406
#	150118
#	166660
#	185635
#	200577
#	220045
#	235031
#	249381
#	258729
#	278155
#
# Disc length: 3917 seconds
#
# Revision: 0
# Processed by: cddbd v1.5.1PL2 Copyright (c) Steve Scherf et al.
# Submitted via: CDex 1.51
#
DISCID=100f4b13
DTITLE=Various Artist - Glory Train Dunamis 61
DYEAR=2006
DGENRE=Country
TTITLE0=LaVerne Tripp/Don't Ever Give Up
TTITLE1=Debbie Bennett/Sunshine, Rain And Roses
TTITLE2=Jeff Cumming/Went In Old But Came Out New
TTITLE3=Two Hearts-N-Him/The Power Of God's Love
TTITLE4=Storm Seymour/Picking To Beat The Devil
TTITLE5=Karen Cruise/Our Children's Prayer
TTITLE6=Ray Billings/Homeway Turner
TTITLE7=Mary Wiles/Why Not Take A Chance
TTITLE8=Dave and Shirley/At The Table Of The King
TTITLE9=Melanie Walker/Walkin' In Jerusalem
TTITLE10=Marvin Morrow/My Jesus Can
TTITLE11=Larry Lee Vannatta/Preacher Man Joe
TTITLE12=Intercession/I Turned Loose
TTITLE13=The Lawsons/The Greatest Love Story
TTITLE14=Shane Tecza/Mama Kept Praying
TTITLE15=Neon Blue/Thank God For The Simple Man
TTITLE16=Jill Walker/Jesus You are So Wonderful
TTITLE17=Joanne Cash Yates/Daddy's Song
TTITLE18=Robert Shields/The Power In His Name
EXTD=YEAR: 2006
EXTT0=
EXTT1=
EXTT2=
EXTT3=
EXTT4=
EXTT5=
EXTT6=
EXTT7=
EXTT8=
EXTT9=
EXTT10=
EXTT11=
EXTT12=
EXTT13=
EXTT14=
EXTT15=
EXTT16=
EXTT17=
EXTT18=
PLAYORDER=
